<?xml version="1.0" standalone="no"?>
<!DOCTYPE svg PUBLIC "-//W3C//DTD SVG 1.1//EN" "http://www.w3.org/Graphics/SVG/1.1/DTD/svg11.dtd" >
<svg>
<metadata>
Created by FontForge 20120731 at Wed Apr 30 16:13:07 2014
 By bend,,,
Copyright (c) 2007-2010, OSP (http://ospublish.constantvzw.org)
The Alfphabet family is based on the Belgian road signage (1945-1975, originally from 3M system working for the Marshall plan after the end of the war).
Alfphabet IV was redrawn by Pierre Huyghebaert and Ludi at Speculoos studio in 2007.


</metadata>
<defs>
<font id="Alfphabet-IV" horiz-adv-x="830" >
  <font-face 
    font-family="Alfphabet"
    font-weight="400"
    font-stretch="extra-expanded"
    units-per-em="1000"
    panose-1="2 11 7 7 1 1 1 3 12 3"
    ascent="800"
    descent="-200"
    x-height="710"
    cap-height="712"
    bbox="0 -202 1362 948"
    underline-thickness="50"
    underline-position="-50"
    unicode-range="U+0020-2122"
  />
<missing-glyph horiz-adv-x="500" 
 />
    <glyph glyph-name=".notdef" horiz-adv-x="500" 
 />
    <glyph glyph-name=".null" horiz-adv-x="0" 
 />
    <glyph glyph-name="nonmarkingreturn" horiz-adv-x="500" 
 />
    <glyph glyph-name="space" unicode=" " horiz-adv-x="701" 
 />
    <glyph glyph-name="space" unicode="&#xa0;" horiz-adv-x="701" 
 />
    <glyph glyph-name="exclam" unicode="!" horiz-adv-x="273" 
d="M70 712h141v-504h-131zM81 0v119h119v-119h-119z" />
    <glyph glyph-name="quotedbl" unicode="&#x22;" horiz-adv-x="440" 
d="M368 712v-178h-119v177zM190 711v-177h-119v177h119z" />
    <glyph glyph-name="numbersign" unicode="#" horiz-adv-x="656" 
d="M387 428h-98l-21 -144h98zM358 198h-98l-30 -198h-98l30 198h-91v86h99l21 144h-91v86h99l31 198h98l-31 -198h98l31 198h98l-31 -198h92v-86h-100l-21 -144h92v-86h-100l-30 -198h-98z" />
    <glyph glyph-name="dollar" unicode="$" horiz-adv-x="855" 
d="M570 427q43 0 82 -16.5t68 -45t46.5 -67.5t17.5 -85q0 -47 -17.5 -86t-47 -67.5t-68 -44.5t-81.5 -16h-87v-107h-115v107h-86q-45 0 -84 16.5t-68 45.5t-45.5 68t-16.5 84h142q0 -14 6 -27t16 -23t23 -16t27 -6l86 1v142h-86q-46 0 -85.5 17t-68 46.5t-44.5 68t-16 82.5
q0 46 17 85t46 67.5t68 45t83 16.5h86v116h115v-116h87q42 0 81 -16t68.5 -44.5t47 -67.5t17.5 -86h-143q0 16 -6.5 30t-17 23.5t-23 15t-24.5 5.5h-87v-145h87zM233 449q8 -10 21 -16t28 -6h86v145h-86q-14 0 -27 -6.5t-23 -17t-16 -23.5t-6 -27q0 -15 6.5 -28t16.5 -21z
M620 164q9 8 15 21t6 28q0 32 -22.5 51.5t-48.5 19.5h-87v-143h87q13 0 26 6.5t24 16.5z" />
    <glyph glyph-name="percent" unicode="%" horiz-adv-x="1040" 
d="M767 730l-430 -746h-67l431 746h66zM461 540q0 -42 -15.5 -78t-42 -62.5t-62 -41.5t-76.5 -15h-1q-41 0 -76.5 15t-62 41.5t-42 62.5t-15.5 78q0 41 15.5 76.5t42 62t62 42t76.5 15.5t77 -15.5t62.5 -42t42 -62t15.5 -76.5zM340 508q6 13 6 32q0 16 -6.5 30.5t-17.5 26
t-26 18t-32 6.5q-16 0 -30.5 -6.5t-26 -17.5t-18 -25.5t-6.5 -31.5q0 -32 23 -57t58 -25q26 0 45.5 13.5t30.5 36.5zM913 312q27 -26 42.5 -61.5t15.5 -77.5q0 -41 -15.5 -77t-42 -62.5t-62.5 -42t-77 -15.5q-40 0 -76 15.5t-63 42t-42.5 62.5t-15.5 77t15.5 77t42.5 62.5
t63 42t76 15.5q42 0 77.5 -15.5t61.5 -42.5zM850 141q6 15 6 32q0 34 -24 58t-58 24t-56.5 -23.5t-25.5 -58.5q1 -14 6 -28.5t15.5 -26.5t25.5 -19.5t35 -7.5q26 0 44.5 13.5t31.5 36.5z" />
    <glyph glyph-name="ampersand" unicode="&#x26;" horiz-adv-x="1040" 
d="M786 286v-73q0 -25 18.5 -47.5t51.5 -22.5v-144q-40 0 -76.5 15.5t-65.5 40.5q-30 -26 -66 -40.5t-76 -14.5h-287q-44 0 -83.5 16.5t-68.5 45t-46 68t-17 84.5q0 82 55 142q-27 28 -41 65t-14 79q0 43 16.5 82t45.5 68t68.5 46t84.5 17h73q43 0 81.5 -16.5t68 -45.5
t47 -68t17.5 -83h-144q0 33 -23 51.5t-47 18.5h-73q-32 0 -52 -20t-20 -50q0 -33 20.5 -52t51.5 -19h143v-144h-143q-18 0 -31.5 -6.5t-22.5 -17t-13.5 -23t-4.5 -24.5q0 -32 21.5 -52.5t50.5 -20.5h287q12 0 24.5 5t22.5 15t16.5 23t6.5 30v415h145v-200h183v-143h-184z
" />
    <glyph glyph-name="quotesingle" unicode="'" horiz-adv-x="260" 
d="M71 534v178h119v-118z" />
    <glyph glyph-name="parenleft" unicode="(" horiz-adv-x="430" 
d="M214 327q0 -37 6.5 -88t22.5 -108t43.5 -116t70.5 -112h-94q-48 37 -84 87.5t-60 107.5t-36.5 116.5t-12.5 112.5q0 52 12.5 111t37 116.5t60.5 108.5t83 87h94q-44 -52 -72 -110t-43.5 -115t-21.5 -108.5t-6 -89.5z" />
    <glyph glyph-name="parenright" unicode=")" horiz-adv-x="430" 
d="M70 -98q43 53 70.5 112t43.5 116t22.5 108t6.5 88q0 38 -6 89.5t-21.5 108.5t-43.5 115t-72 110h95q47 -36 83 -87t60 -108.5t36.5 -116.5t12.5 -111q0 -53 -12.5 -112t-36.5 -116t-60 -108t-83 -88h-95z" />
    <glyph glyph-name="asterisk" unicode="*" horiz-adv-x="514" 
d="M393 665l49 -87l-117 -47l118 -48l-50 -86l-100 78l17 -126h-99l16 126l-99 -78l-50 86l119 48l-119 47l50 86l100 -77l-18 125h100l-17 -125z" />
    <glyph glyph-name="plus" unicode="+" horiz-adv-x="620" 
d="M362 263v-191h-100v191h-192v100h191v191h100v-191h191v-100h-190z" />
    <glyph glyph-name="comma" unicode="," horiz-adv-x="222" 
d="M70 -59v178h119v-119z" />
    <glyph glyph-name="hyphen" unicode="-" horiz-adv-x="614" 
d="M70 256v119h475v-119h-475z" />
    <glyph glyph-name="period" unicode="." horiz-adv-x="257" 
d="M70 0v119h119v-119h-119z" />
    <glyph glyph-name="slash" unicode="/" horiz-adv-x="592" 
d="M161 -17h-152l422 746h152z" />
    <glyph glyph-name="zero" unicode="0" horiz-adv-x="832" 
d="M309 0q-52 0 -97.5 19.5t-79 53t-53 79t-19.5 97.5v214q0 54 20 99.5t54 79t79.5 52t95.5 18.5h214q50 0 95 -18.5t79.5 -52t54.5 -79t20 -99.5v-214q0 -52 -19.5 -97.5t-53.5 -79t-79 -53t-97 -19.5h-214zM234 538q-30 -30 -30 -75v-214q0 -44 29.5 -74.5t75.5 -30.5
h214q22 0 42 8.5t34.5 23t23 33.5t8.5 40v214q0 21 -9 40.5t-24 34.5t-34.5 24t-40.5 9h-214q-23 0 -41.5 -9t-33.5 -24z" />
    <glyph glyph-name="one" unicode="1" horiz-adv-x="338" 
d="M127 712h142v-712h-142v510l-101 -97v201z" />
    <glyph glyph-name="two" unicode="2" horiz-adv-x="839" 
d="M63 534q0 38 14.5 70.5t39.5 56.5t57 37.5t67 13.5h356q34 0 66.5 -13.5t57 -37.5t39.5 -56.5t15 -70.5q0 -47 -22.5 -85t-60.5 -63l-372 -244h455v-142h-712v142l543 355q11 8 18.5 15.5t7.5 21.5q0 15 -10.5 25.5t-24.5 10.5h-356q-14 0 -25 -11t-11 -25h-142z" />
    <glyph glyph-name="three" unicode="3" horiz-adv-x="829" 
d="M769 214q0 -45 -17 -84.5t-46.5 -68t-68.5 -45t-83 -16.5h-287q-41 0 -79.5 16t-68.5 44.5t-48 68t-18 85.5h144q0 -17 6.5 -30t16.5 -23t22.5 -15t24.5 -5h287q29 0 50.5 20.5t21.5 52.5q0 12 -4.5 24.5t-13.5 23t-22.5 17t-31.5 6.5h-143v144h143q31 0 51.5 19t20.5 52
q0 30 -20.5 50t-51.5 20h-287q-25 0 -47.5 -18.5t-22.5 -51.5h-144q0 44 17.5 83t47 68t68 45.5t81.5 16.5h287q45 0 84.5 -17t68.5 -46t45.5 -68t16.5 -82q0 -42 -14 -79t-41 -65q55 -60 55 -142z" />
    <glyph glyph-name="four" unicode="4" horiz-adv-x="780" 
d="M656 713v-497h70v-143h-70v-73h-143v73h-495h-2v143l497 497h143zM513 216v297l-297 -297h297z" />
    <glyph glyph-name="five" unicode="5" horiz-adv-x="831" 
d="M203 567v-70h318q51 0 96 -19t79 -52.5t54 -79.5t20 -100q0 -51 -19.5 -95.5t-53 -78t-78.5 -53t-96 -19.5h-216q-53 0 -98 20t-78 53.5t-51.5 78t-18.5 94.5h142q0 -22 8 -41t22.5 -33t33.5 -22t40 -8h214q23 0 42.5 8t33.5 22.5t22 33.5t8 40q0 26 -9.5 46.5
t-24.5 34.5t-34 21t-38 7h-391l-69 69v177v108h709v-142h-567z" />
    <glyph glyph-name="six" unicode="6" horiz-adv-x="833" 
d="M562 430q45 0 84 -17.5t68 -47.5t45.5 -68.5t16.5 -80.5q0 -45 -17 -84t-46 -68.5t-68 -46.5t-83 -17h-286q-44 0 -83 17t-68 46.5t-45.5 68.5t-16.5 84v284q0 44 16.5 83t45.5 68t68 45.5t83 16.5h286q44 0 83 -17t68 -46t46 -67.5t17 -82.5h-144q0 34 -22.5 52
t-47.5 18h-286q-29 0 -49.5 -19.5t-20.5 -50.5v-83q17 5 34 9t36 4h286zM612 165q20 20 20 51q0 28 -20.5 49t-49.5 21h-286q-33 0 -51.5 -22t-18.5 -48q0 -29 19.5 -50.5t50.5 -21.5h286q29 0 50 21z" />
    <glyph glyph-name="seven" unicode="7" horiz-adv-x="790" 
d="M62 712h712v-144l-519 -568h-193l521 568h-521v144z" />
    <glyph glyph-name="eight" unicode="8" horiz-adv-x="824" 
d="M707 365q28 -30 45 -68t17 -83q0 -46 -17.5 -85t-46.5 -67.5t-68 -45t-81 -16.5h-288q-42 0 -80.5 16t-68 44.5t-47 68t-17.5 85.5q0 45 17 83t45 68q10 8 19.5 15t20.5 16q-3 1 -7 4.5t-7 6.5q-25 25 -39 58t-14 69t14 68.5t38 57t56.5 38.5t69.5 14h285q37 0 69.5 -14
t56.5 -38.5t38 -57t14 -68.5q0 -42 -17.5 -75.5t-46.5 -62.5q11 -7 20.5 -15t19.5 -16zM244 558q-7 -5 -9 -10.5t-2 -13.5q0 -15 10 -25.5t25 -10.5h285q17 0 26.5 10t9.5 26q0 15 -10.5 24.5t-25.5 9.5h-285q-8 0 -13.5 -1.5t-10.5 -8.5zM606 164q20 20 20 50
q0 11 -4.5 23.5t-13 23t-21.5 17.5t-31 7h-288q-29 0 -49.5 -21.5t-20.5 -49.5q0 -16 6.5 -29.5t16.5 -23t22.5 -15t24.5 -5.5h288q30 0 50 23z" />
    <glyph glyph-name="nine" unicode="9" horiz-adv-x="831" 
d="M706 652q30 -31 46.5 -70t16.5 -84v-284q0 -42 -16.5 -81t-45 -68.5t-68 -47t-84.5 -17.5h-285q-44 0 -82.5 17t-67.5 46.5t-46 68t-17 82.5h143q0 -30 20.5 -50t49.5 -20h285q29 0 51 20.5t22 49.5v82q-38 -11 -73 -11h-285q-44 0 -82.5 16.5t-67.5 45.5t-46 67.5
t-17 83.5t16.5 84t45 68t67.5 45.5t84 16.5h285q45 0 83.5 -16t67.5 -44zM605 447q23 23 23 51q0 29 -22 51t-51 22h-285q-29 0 -49.5 -21.5t-20.5 -51.5q0 -26 18.5 -48.5t51.5 -22.5h285q15 0 27.5 6t22.5 14z" />
    <glyph glyph-name="colon" unicode=":" horiz-adv-x="257" 
d="M70 0v119h119v-119h-119zM70 257v119h119v-119h-119z" />
    <glyph glyph-name="semicolon" unicode=";" horiz-adv-x="233" 
d="M70 257v119h119v-119h-119zM70 -59v178h119v-119z" />
    <glyph glyph-name="less" unicode="&#x3c;" horiz-adv-x="610" 
d="M541 131v-102l-471 272v101l471 272v-103l-383 -220z" />
    <glyph glyph-name="equal" unicode="=" horiz-adv-x="622" 
d="M362 363h-292v100h291h191v-100h-190zM362 163h-292v100h291h191v-100h-190z" />
    <glyph glyph-name="greater" unicode="&#x3e;" horiz-adv-x="610" 
d="M70 130l383 220l-383 220v103l471 -272v-101l-471 -272v102z" />
    <glyph glyph-name="question" unicode="?" 
d="M724 650q28 -29 45 -68t17 -84q0 -44 -16.5 -82.5t-45.5 -68t-68 -46.5t-84 -17q-16 0 -29 -6.5t-22 -16.5t-14 -22.5t-5 -24.5v-73h-144v73q0 43 16.5 82t45.5 68t68 46.5t84 17.5q28 0 49 19t21 51q0 34 -21.5 52.5t-48.5 18.5h-287q-27 0 -48.5 -18.5t-21.5 -52.5
h-144q0 45 16.5 84t45.5 68t68 45.5t84 16.5h287q45 0 84 -17t68 -45zM499 0h-144v43h144v-43z" />
    <glyph glyph-name="at" unicode="@" horiz-adv-x="910" 
d="M553 -49q66 0 122 24.5t98 66.5l53 -52q-54 -54 -123 -83.5t-150 -29.5h-98q-81 0 -151 30.5t-122 83t-82 122.5t-30 150v194q0 80 30 150t82.5 122.5t122.5 82.5t150 30q79 0 149.5 -30t123 -82t83 -122.5t30.5 -150.5q0 -75 -26 -141t-71.5 -116.5t-107.5 -83.5
t-133 -42q-8 -2 -15 -2.5t-14 -0.5h-19v1q-34 4 -63 20t-50.5 41t-34 57.5t-12.5 70.5q0 39 14 73.5t38.5 60t57 40.5t69.5 15q18 0 38 -5.5t54 -19.5v73q0 35 -23 59.5t-55 24.5q-28 0 -49 -18.5t-27 -46.5h-87q3 33 17 61.5t36 49.5t50 33t60 12q34 0 64 -13.5t52 -37.5
t35 -56t13 -68v-283l24 21q42 43 66.5 99t24.5 122q0 64 -24.5 121t-67 99t-99.5 66.5t-121 24.5q-65 0 -121.5 -24.5t-98.5 -66.5t-66.5 -99t-24.5 -121v-194q0 -65 24.5 -122t66.5 -99t98.5 -66.5t121.5 -24.5h98zM381 261q0 -20 7.5 -38t20 -31.5t29.5 -21.5t36 -8
t35.5 8t29 21.5t20 31.5t7.5 38q0 19 -7.5 37t-20 31.5t-29 21.5t-35.5 8t-36 -8t-29.5 -21.5t-20 -31.5t-7.5 -37z" />
    <glyph glyph-name="A" unicode="A" horiz-adv-x="777" 
d="M310 713h155l281 -713h-154l-42 105h-322l-43 -105h-154zM283 250h211l-105 269z" />
    <glyph glyph-name="B" unicode="B" horiz-adv-x="841" 
d="M781 499q0 -42 -14.5 -77.5t-40.5 -64.5q26 -28 40.5 -64.5t14.5 -78.5q0 -45 -16.5 -83.5t-45.5 -67.5t-67.5 -45.5t-83.5 -16.5h-498v711h498q45 0 83.5 -16.5t67.5 -45.5t45.5 -67.5t16.5 -83.5zM618 164q20 20 20 50q0 31 -20 51t-50 20h-358v-141h358q30 0 50 20z
M618 448q20 26 20 51q0 30 -21 51.5t-49 21.5h-358v-144h358q30 0 50 20z" />
    <glyph glyph-name="C" unicode="C" 
d="M702 247h74q0 -51 -20 -96t-54 -78.5t-79 -53t-96 -19.5h-215q-53 0 -99 19.5t-80 53t-53.5 79t-19.5 97.5v215q0 52 19.5 97t53.5 79t80 53.5t99 19.5h215q50 0 95.5 -19.5t79.5 -53t54 -78t20 -95.5h-144q0 21 -8.5 40t-23 33.5t-33.5 23t-40 8.5h-215q-23 0 -42.5 -8
t-34 -22.5t-23 -34.5t-8.5 -43v-215q0 -47 31 -76t77 -29h215q21 0 40.5 8t33.5 22t22.5 32.5t8.5 40.5h70z" />
    <glyph glyph-name="D" unicode="D" horiz-adv-x="838" 
d="M706 636q34 -32 53.5 -76.5t19.5 -98.5v-213q0 -51 -20 -96.5t-53.5 -79t-78.5 -53t-96 -19.5h-461v712h461q51 0 96 -21t79 -55zM638 461q0 21 -9 40.5t-23.5 34t-34 23.5t-40.5 9h-319v-426h319q22 0 41.5 8.5t34 23.5t23 34t8.5 40v213z" />
    <glyph glyph-name="E" unicode="E" horiz-adv-x="851" 
d="M781 571h-571v-141h297v-143h-297v-144h571v-143h-711v571v140h711v-140z" />
    <glyph glyph-name="F" unicode="F" horiz-adv-x="787" 
d="M781 570h-573v-142h299v-143h-299v-285h-138v711h711v-141z" />
    <glyph glyph-name="G" unicode="G" horiz-adv-x="828" 
d="M772 392v-144q0 -51 -20 -96t-54 -79t-79.5 -53.5t-95.5 -19.5h-216q-51 0 -96 19.5t-79 53.5t-53.5 79t-19.5 96v216q0 50 19.5 95.5t53.5 79.5t79 54t96 20h216q50 0 95.5 -20t79.5 -54t54 -79.5t20 -95.5h-141q0 22 -8.5 41.5t-23.5 34.5t-34.5 23.5t-41.5 8.5h-216
q-21 0 -40.5 -8.5t-34.5 -23.5t-23.5 -34.5t-8.5 -41.5v-216q0 -22 8.5 -41t23.5 -33.5t34.5 -22.5t40.5 -8h216q22 0 41.5 8t34.5 22.5t23.5 33.5t8.5 41h-216v144h357z" />
    <glyph glyph-name="H" unicode="H" horiz-adv-x="852" 
d="M640 711h142v-711h-142v286h-426v-286h-144v711h144v-282h426v282z" />
    <glyph glyph-name="I" unicode="I" horiz-adv-x="279" 
d="M70 0v712h141v-712h-141z" />
    <glyph glyph-name="J" unicode="J" horiz-adv-x="780" 
d="M253 0q-51 0 -96 20t-78.5 53.5t-53.5 78.5t-20 96h141q0 -22 8.5 -41.5t23 -33.5t34 -22.5t41.5 -8.5h214q22 0 42 8.5t34 22.5t22.5 33.5t8.5 41.5v463h142v-463q0 -51 -20 -96t-53.5 -78.5t-79 -53.5t-96.5 -20h-214z" />
    <glyph glyph-name="K" unicode="K" 
d="M780 710l-379 -237l380 -473h-183l-318 398l-67 -43v-355h-143v710h143v-187l297 187h270z" />
    <glyph glyph-name="L" unicode="L" horiz-adv-x="789" 
d="M782 144v-144h-712v712h141v-568h571z" />
    <glyph glyph-name="M" unicode="M" horiz-adv-x="851" 
d="M638 711h143v-711h-143v509l-114 -112h3l-102 -100l-215 212v-509h-140v711h143l212 -213z" />
    <glyph glyph-name="N" unicode="N" horiz-adv-x="854" 
d="M165 711h48l428 -246v246h143v-711h-143v302l-428 246v-548h-143v711h95z" />
    <glyph glyph-name="O" unicode="O" horiz-adv-x="829" 
d="M308 0q-51 0 -96.5 19.5t-79 53t-53 79t-19.5 96.5v214q0 51 19.5 96.5t53 79t79 53t96.5 19.5h214q51 0 96.5 -19.5t79 -53t53 -79t19.5 -96.5v-214q0 -51 -19.5 -96.5t-53 -79t-79 -53t-96.5 -19.5h-214zM233 537q-15 -15 -24 -33.5t-9 -41.5v-214q0 -22 8.5 -41
t23.5 -33.5t34.5 -22.5t41.5 -8h214q45 0 75 30t30 75v214q0 22 -8 41.5t-22.5 34.5t-33.5 23.5t-41 8.5h-214q-23 0 -41.5 -9t-33.5 -24z" />
    <glyph glyph-name="P" unicode="P" horiz-adv-x="800" 
d="M708 638q34 -35 53 -80t19 -97q0 -51 -19.5 -96t-53 -79t-79 -53.5t-97.5 -19.5h-320v-213h-141v710h461q52 0 97 -19t80 -53zM607 386q30 30 30 75q0 24 -8.5 43.5t-23.5 34t-34 22.5t-40 8h-320v-213h320q46 0 76 30z" />
    <glyph glyph-name="Q" unicode="Q" horiz-adv-x="832" 
d="M770 249q0 -43 -14.5 -83.5t-40.5 -70.5l55 -95h-162l-9 13q-19 -5 -38.5 -9t-39.5 -4h-213q-52 0 -97.5 19.5t-79 53t-53 79t-19.5 97.5v213q0 53 20 99t54 80t79.5 53.5t95.5 19.5h213q49 0 94 -19t79.5 -52.5t55 -80t20.5 -100.5v-213zM628 249v213q0 25 -9 45
t-23.5 34t-34 21.5t-40.5 7.5h-213q-22 0 -41.5 -8t-34.5 -22.5t-23.5 -34t-8.5 -43.5v-213q0 -21 7.5 -40t22 -34t34.5 -24t44 -9h216l-62 107h166z" />
    <glyph glyph-name="R" unicode="R" horiz-adv-x="843" 
d="M70 712h498q45 -6 84.5 -27t68 -53.5t45 -72.5t16.5 -83v-10v-10q0 -29 -8 -58.5t-23 -56t-35.5 -48.5t-44.5 -37l114 -256h-157l-95 216h-319v-216h-144v712zM214 360h319q22 0 41.5 8t34.5 22.5t23.5 33.5t8.5 42q0 21 -9 40.5t-24 34.5t-34.5 24t-40.5 9h-319v-214z
" />
    <glyph glyph-name="S" unicode="S" 
d="M559 428q43 0 82 -16.5t68 -45t46.5 -67.5t17.5 -85q0 -47 -17.5 -86t-47 -67.5t-68 -44.5t-81.5 -16h-288q-45 0 -84 16.5t-68 45.5t-45.5 68t-16.5 84h142q0 -28 22 -50t50 -22h288q11 0 23.5 5t23 14.5t17.5 23t7 29.5q0 32 -22.5 51.5t-48.5 19.5h-288
q-46 0 -85.5 17t-68 46.5t-44.5 68t-16 82.5q0 46 17 85t46 67.5t68 45t83 16.5h288q42 0 81 -16t68.5 -44.5t47 -67.5t17.5 -86h-143q0 16 -6.5 30t-17 23.5t-23 15t-24.5 5.5h-288q-14 0 -27 -6.5t-23 -17t-16 -23.5t-6 -27q0 -29 21.5 -50t50.5 -21h288z" />
    <glyph glyph-name="T" unicode="T" horiz-adv-x="768" 
d="M739 710v-139h-284v-571h-142v571h-284v139h710z" />
    <glyph glyph-name="U" unicode="U" horiz-adv-x="841" 
d="M315 0q-52 0 -97.5 19.5t-79.5 53.5t-53.5 79.5t-19.5 97.5v462h140v-462q0 -23 8.5 -42.5t23.5 -34t35 -22.5t43 -8h212q23 0 43 8t35 22.5t23.5 34t8.5 42.5v462h140v-462q0 -52 -19.5 -97.5t-53.5 -79.5t-79.5 -53.5t-97.5 -19.5h-212z" />
    <glyph glyph-name="V" unicode="V" horiz-adv-x="767" 
d="M585 711h152l-283 -711h-142l-283 711h152l203 -503z" />
    <glyph glyph-name="W" unicode="W" horiz-adv-x="811" 
d="M615 0h-145l-64 126l-80 -126h-144l-133 712h146l98 -498l113 196l114 -196l98 498h146z" />
    <glyph glyph-name="X" unicode="X" horiz-adv-x="829" 
d="M767 711l-263 -354l269 -357h-179l-181 239l-179 -239h-178l269 357l-266 354h178l176 -233l176 233h178z" />
    <glyph glyph-name="Y" unicode="Y" horiz-adv-x="756" 
d="M552 712h180l-284 -375v-337h-142v337l-282 375h179l177 -232z" />
    <glyph glyph-name="Z" unicode="Z" horiz-adv-x="854" 
d="M784 570l-495 -426h495v-144h-711v141h-3l495 429h-492v141h711v-95v-46z" />
    <glyph glyph-name="bracketleft" unicode="[" horiz-adv-x="320" 
d="M70 -62v812h182v-50h-67v-712h67v-50h-182z" />
    <glyph glyph-name="backslash" unicode="\" horiz-adv-x="710" 
d="M70 729h152l422 -746h-152z" />
    <glyph glyph-name="bracketright" unicode="]" horiz-adv-x="320" 
d="M70 -62v50h67v712h-67v50h182v-812h-182z" />
    <glyph glyph-name="asciicircum" unicode="^" horiz-adv-x="833" 
d="M407 897l121 -119l-30 -30l-91 89l-90 -89l-32 30zM407 897l121 -119l-30 -30l-91 89l-90 -89l-32 30z" />
    <glyph glyph-name="underscore" unicode="_" horiz-adv-x="500" 
d="M0 -75h500v-50h-500v50z" />
    <glyph glyph-name="grave" unicode="`" horiz-adv-x="208" 
d="M31 824l50 50l96 -94l-37 -35z" />
    <glyph glyph-name="a" unicode="a" horiz-adv-x="776" 
d="M465 713l281 -713h-154l-42 105h-322l-43 -105h-154l279 713h155zM494 250l-105 269l-106 -269h211z" />
    <glyph glyph-name="b" unicode="b" horiz-adv-x="841" 
d="M781 499q0 -42 -14.5 -77.5t-40.5 -64.5q26 -28 40.5 -64.5t14.5 -78.5q0 -45 -16.5 -83.5t-45.5 -67.5t-67.5 -45.5t-83.5 -16.5h-498v711h498q45 0 83.5 -16.5t67.5 -45.5t45.5 -67.5t16.5 -83.5zM618 164q20 20 20 50q0 31 -20 51t-50 20h-358v-141h358q30 0 50 20z
M618 448q20 26 20 51q0 30 -21 51.5t-49 21.5h-358v-144h358q30 0 50 20z" />
    <glyph glyph-name="c" unicode="c" 
d="M706 248h74q0 -51 -20 -96t-54 -78.5t-79.5 -53.5t-96.5 -20h-217q-53 0 -99 19.5t-80.5 53.5t-54 79.5t-19.5 97.5v217q0 52 19.5 97.5t54 79.5t80.5 53.5t99 19.5h217q51 0 96.5 -20t79.5 -53.5t54 -78.5t20 -95h-145q0 21 -8.5 40t-23 33.5t-33.5 23t-40 8.5h-217
q-23 0 -42.5 -8t-34 -22.5t-23 -34.5t-8.5 -43v-217q0 -47 31 -76t77 -29h217q21 0 40.5 8t33.5 22t22.5 32.5t8.5 40.5h71z" />
    <glyph glyph-name="d" unicode="d" horiz-adv-x="838" 
d="M706 636q34 -32 53.5 -76.5t19.5 -98.5v-213q0 -51 -20 -96.5t-53.5 -79t-78.5 -53t-96 -19.5h-461v712h461q51 0 96 -21t79 -55zM638 461q0 21 -9 40.5t-23.5 34t-34 23.5t-40.5 9h-319v-426h319q22 0 41.5 8.5t34 23.5t23 34t8.5 40v213z" />
    <glyph glyph-name="e" unicode="e" horiz-adv-x="851" 
d="M210 571v-141h297v-143h-297v-144h571v-143h-711v571v140h711v-140h-571z" />
    <glyph glyph-name="f" unicode="f" horiz-adv-x="787" 
d="M208 570v-142h299v-143h-299v-285h-138v711h711v-141h-573z" />
    <glyph glyph-name="g" unicode="g" horiz-adv-x="828" 
d="M772 392v-144q0 -51 -20 -96t-54 -79t-79.5 -53.5t-95.5 -19.5h-216q-51 0 -96 19.5t-79 53.5t-53.5 79t-19.5 96v216q0 50 19.5 95.5t53.5 79.5t79 54t96 20h216q50 0 95.5 -20t79.5 -54t54 -79.5t20 -95.5h-141q0 22 -8.5 41.5t-23.5 34.5t-34.5 23.5t-41.5 8.5h-216
q-21 0 -40.5 -8.5t-34.5 -23.5t-23.5 -34.5t-8.5 -41.5v-216q0 -22 8.5 -41t23.5 -33.5t34.5 -22.5t40.5 -8h216q22 0 41.5 8t34.5 22.5t23.5 33.5t8.5 41h-216v144h357z" />
    <glyph glyph-name="h" unicode="h" horiz-adv-x="852" 
d="M782 711v-711h-142v286h-426v-286h-144v711h144v-282h426v282h142z" />
    <glyph glyph-name="i" unicode="i" horiz-adv-x="279" 
d="M70 712h141v-712h-141v712z" />
    <glyph glyph-name="j" unicode="j" horiz-adv-x="780" 
d="M253 0q-51 0 -96 20t-78.5 53.5t-53.5 78.5t-20 96h141q0 -22 8.5 -41.5t23 -33.5t34 -22.5t41.5 -8.5h214q22 0 42 8.5t34 22.5t22.5 33.5t8.5 41.5v463h142v-463q0 -51 -20 -96t-53.5 -78.5t-79 -53.5t-96.5 -20h-214z" />
    <glyph glyph-name="k" unicode="k" 
d="M401 473l380 -473h-183l-318 398l-67 -43v-355h-143v710h143v-187l297 187h270z" />
    <glyph glyph-name="l" unicode="l" horiz-adv-x="789" 
d="M782 0h-712v712h141v-568h571v-144z" />
    <glyph glyph-name="m" unicode="m" horiz-adv-x="851" 
d="M781 711v-711h-143v509l-114 -112h3l-102 -100l-215 212v-509h-140v711h143l212 -213l213 213h143z" />
    <glyph glyph-name="n" unicode="n" horiz-adv-x="854" 
d="M213 711l428 -246v246h143v-711h-143v302l-428 246v-548h-143v711h95h48z" />
    <glyph glyph-name="o" unicode="o" 
d="M308 0q-51 0 -96.5 19.5t-79 53t-53 79t-19.5 96.5v214q0 51 19.5 96.5t53 79t79 53t96.5 19.5h214q51 0 96.5 -19.5t79 -53t53 -79t19.5 -96.5v-214q0 -51 -19.5 -96.5t-53 -79t-79 -53t-96.5 -19.5h-214zM233 537q-15 -15 -24 -33.5t-9 -41.5v-214q0 -22 8.5 -41
t23.5 -33.5t34.5 -22.5t41.5 -8h214q45 0 75 30t30 75v214q0 22 -8 41.5t-22.5 34.5t-33.5 23.5t-41 8.5h-214q-23 0 -41.5 -9t-33.5 -24z" />
    <glyph glyph-name="p" unicode="p" horiz-adv-x="800" 
d="M708 638q34 -35 53 -80t19 -97q0 -51 -19.5 -96t-53 -79t-79 -53.5t-97.5 -19.5h-320v-213h-141v710h461q52 0 97 -19t80 -53zM607 386q30 30 30 75q0 24 -8.5 43.5t-23.5 34t-34 22.5t-40 8h-320v-213h320q46 0 76 30z" />
    <glyph glyph-name="q" unicode="q" horiz-adv-x="833" 
d="M771 249q0 -43 -14.5 -83.5t-40.5 -70.5l55 -95h-162l-9 13q-19 -5 -38.5 -9t-39.5 -4h-213q-52 0 -97.5 19.5t-79 53t-53 79t-19.5 97.5v213q0 53 20 99t54 80t79.5 53.5t95.5 19.5h213q49 0 94 -19t79.5 -52.5t55 -80t20.5 -100.5v-213zM629 249v213q0 25 -9 45
t-23.5 34t-34 21.5t-40.5 7.5h-213q-22 0 -41.5 -8t-34.5 -22.5t-23.5 -34t-8.5 -43.5v-213q0 -21 7.5 -40t22 -34t34.5 -24t44 -9h216l-62 107h166z" />
    <glyph glyph-name="r" unicode="r" horiz-adv-x="843" 
d="M70 712h498q45 -6 84.5 -27t68 -53.5t45 -72.5t16.5 -83v-10v-10q0 -29 -8 -58.5t-23 -56t-35.5 -48.5t-44.5 -37l114 -256h-157l-95 216h-319v-216h-144v712zM214 360h319q22 0 41.5 8t34.5 22.5t23.5 33.5t8.5 42q0 21 -9 40.5t-24 34.5t-34.5 24t-40.5 9h-319v-214z
" />
    <glyph glyph-name="s" unicode="s" 
d="M559 428q43 0 82 -16.5t68 -45t46.5 -67.5t17.5 -85q0 -47 -17.5 -86t-47 -67.5t-68 -44.5t-81.5 -16h-288q-45 0 -84 16.5t-68 45.5t-45.5 68t-16.5 84h142q0 -28 22 -50t50 -22h288q11 0 23.5 5t23 14.5t17.5 23t7 29.5q0 32 -22.5 51.5t-48.5 19.5h-288
q-46 0 -85.5 17t-68 46.5t-44.5 68t-16 82.5q0 46 17 85t46 67.5t68 45t83 16.5h288q42 0 81 -16t68.5 -44.5t47 -67.5t17.5 -86h-143q0 16 -6.5 30t-17 23.5t-23 15t-24.5 5.5h-288q-14 0 -27 -6.5t-23 -17t-16 -23.5t-6 -27q0 -29 21.5 -50t50.5 -21h288z" />
    <glyph glyph-name="t" unicode="t" horiz-adv-x="768" 
d="M739 571h-284v-571h-142v571h-284v139h710v-139z" />
    <glyph glyph-name="u" unicode="u" horiz-adv-x="841" 
d="M315 0q-52 0 -97.5 19.5t-79.5 53.5t-53.5 79.5t-19.5 97.5v462h140v-462q0 -23 8.5 -42.5t23.5 -34t35 -22.5t43 -8h212q23 0 43 8t35 22.5t23.5 34t8.5 42.5v462h140v-462q0 -52 -19.5 -97.5t-53.5 -79.5t-79.5 -53.5t-97.5 -19.5h-212z" />
    <glyph glyph-name="v" unicode="v" horiz-adv-x="767" 
d="M738 711l-283 -711h-142l-283 711h152l203 -503l201 503h152z" />
    <glyph glyph-name="w" unicode="w" horiz-adv-x="811" 
d="M615 0h-145l-64 126l-80 -126h-144l-133 712h146l98 -498l113 196l114 -196l98 498h146z" />
    <glyph glyph-name="x" unicode="x" horiz-adv-x="829" 
d="M504 357l269 -357h-179l-181 239l-179 -239h-178l269 357l-266 354h178l176 -233l176 233h178z" />
    <glyph glyph-name="y" unicode="y" horiz-adv-x="756" 
d="M732 712l-284 -375v-337h-142v337l-282 375h179l177 -232l172 232h180z" />
    <glyph glyph-name="z" unicode="z" horiz-adv-x="853" 
d="M288 144h495v-144h-711v141h-3l495 429h-492v141h711v-141z" />
    <glyph glyph-name="braceleft" unicode="{" horiz-adv-x="370" 
d="M158 326q4 -3 16.5 -14.5t25 -31.5t22.5 -50t10 -72v-201q0 -12 5 -23.5t14 -21.5t21 -16t27 -6v-92q-33 0 -61.5 13t-49.5 35t-33.5 50.5t-12.5 60.5v185q0 57 -18 94t-55 53v74q37 16 55 53t18 94v185q0 31 12.5 60t33.5 51t49.5 35t61.5 13v-92q-15 0 -27 -6.5
t-21 -16t-14 -21.5t-5 -23v-201q0 -42 -10 -72t-22.5 -50.5t-25 -31.5t-16.5 -14z" />
    <glyph glyph-name="bar" unicode="|" horiz-adv-x="852" 
d="M366 0v750h115v-750h-115z" />
    <glyph glyph-name="braceright" unicode="}" horiz-adv-x="370" 
d="M210 326q-5 3 -17 14t-25 31.5t-22.5 50.5t-9.5 72v201q0 11 -5 23t-14 21.5t-21 16t-27 6.5v92q33 0 61.5 -13t49.5 -35t33.5 -51t12.5 -60v-185q0 -57 18 -94t55 -53v-74q-37 -16 -55 -53t-18 -94v-185q0 -32 -12.5 -60.5t-33.5 -50.5t-49.5 -35t-61.5 -13v92
q15 0 27 6t21 16t14 21.5t5 23.5v201q0 42 9.5 72t22.5 50.5t25 31.5t17 14z" />
    <glyph glyph-name="asciitilde" unicode="~" horiz-adv-x="833" 
 />
    <glyph glyph-name="dieresis" unicode="&#xa8;" 
d="M205 746v50h141v-50h-141zM447 746v50h141v-50h-141z" />
    <glyph glyph-name="copyright" unicode="&#xa9;" horiz-adv-x="518" 
d="M393 657q26 -26 40.5 -60t14.5 -74q0 -39 -15 -73.5t-40.5 -60t-60 -40.5t-73.5 -15q-40 0 -74.5 15t-60 40.5t-40.5 60t-15 73.5t15 74t40.5 60.5t60.5 40.5t74 15t73.5 -15t60.5 -41zM367 415q44 42 44 108q0 32 -11.5 60t-32 48.5t-48.5 32.5t-60 12q-33 0 -61 -12
t-48.5 -32.5t-32 -48.5t-11.5 -60t11.5 -60t32 -48.5t48.5 -32.5t61 -12q32 0 60 12t48 33zM211 571q-7 -7 -7 -20v-56q0 -11 6.5 -18.5t20.5 -7.5h56q11 0 18.5 7t7.5 19h38q0 -26 -19 -44.5t-45 -18.5h-56q-28 0 -46.5 18.5t-18.5 44.5v56q0 29 20 46.5t45 17.5h56
q25 0 44.5 -18t19.5 -45h-38q0 11 -7.5 18.5t-18.5 7.5h-56q-13 0 -20 -7z" />
    <glyph glyph-name="guillemotleft" unicode="&#xab;" horiz-adv-x="613" 
d="M278 435l-125 -125l125 -125v-125l-250 250l250 250v-125zM544 435l-125 -125l125 -125v-125l-250 250l250 250v-125z" />
    <glyph glyph-name="registered" unicode="&#xae;" horiz-adv-x="516" 
d="M391 656q26 -26 40.5 -60t14.5 -73t-15 -73t-40.5 -59.5t-59.5 -40.5t-73 -15t-73.5 15t-60 40.5t-40 59.5t-14.5 73t14.5 73t40 59.5t60 40.5t73.5 15t73 -14.5t60 -40.5zM366 416q20 21 32 48t12 59t-12 59.5t-32.5 48t-48 32.5t-59.5 12t-59.5 -12t-48 -32.5
t-32.5 -48t-12 -59.5t12 -59.5t32.5 -48t48 -32.5t59.5 -12t59.5 12t48.5 33zM330 506l-10 -8l28 -65h-39l-24 55h-82v-55h-35v181h126q24 -5 39 -21.5t15 -41.5q0 -26 -18 -45zM304 532q8 8 8 19t-8 19t-19 8h-82v-54h82q11 0 19 8z" />
    <glyph glyph-name="degree" unicode="&#xb0;" horiz-adv-x="403" 
d="M353 575q0 -31 -12 -58.5t-32.5 -48t-48.5 -32.5t-59 -12t-58.5 12t-48 32.5t-32.5 48t-12 58.5t12 59t32.5 48.5t48 32.5t58.5 12t59 -12t48.5 -32.5t32.5 -48.5t12 -59zM288 575q0 36 -25.5 61.5t-61.5 25.5q-18 0 -33.5 -7t-27 -18.5t-18.5 -27.5t-7 -34t7 -33.5
t18.5 -27t27 -18.5t33.5 -7t34 7t27.5 18.5t18.5 27t7 33.5z" />
    <glyph glyph-name="acute" unicode="&#xb4;" horiz-adv-x="790" 
d="M404 743l-34 37l94 97l50 -50z" />
    <glyph glyph-name="guillemotright" unicode="&#xbb;" horiz-adv-x="613" 
d="M337 560l250 -250l-250 -250v125l125 125l-125 125v125zM71 560l250 -250l-250 -250v125l125 125l-125 125v125z" />
    <glyph glyph-name="Agrave" unicode="&#xc0;" horiz-adv-x="752" 
d="M301 711h153l277 -711h-152l-43 107h-320l-40 -107h-152zM271 249h211l-107 266zM375 745l-109 79l50 50l96 -94z" />
    <glyph glyph-name="Aacute" unicode="&#xc1;" horiz-adv-x="750" 
d="M299 711h149l279 -711h-153l-43 108h-318l-40 -108h-153zM267 249h211l-107 265zM339 783l94 94l48 -50l-110 -79z" />
    <glyph glyph-name="Acircumflex" unicode="&#xc2;" horiz-adv-x="764" 
d="M305 712h153l280 -712h-151l-43 105h-322l-43 -105h-153zM278 249h210l-105 269zM262 782l121 121l121 -121l-31 -30l-90 91l-91 -91z" />
    <glyph glyph-name="Atilde" unicode="&#xc3;" horiz-adv-x="777" 
d="M561 831q-15 -31 -39 -56t-61 -25q-24 0 -44 8.5t-36.5 19t-31 19t-26.5 8.5q-19 0 -30 -11t-19 -25l-67 36q9 15 19.5 29t23 25t28.5 17.5t35 6.5q21 0 40 -9t36 -19.5t32.5 -19t30.5 -8.5q16 0 26 12t16 25zM465 713l281 -713h-154l-42 105h-322l-43 -105h-154l279 713
h155zM494 250l-105 269l-106 -269h211z" />
    <glyph glyph-name="Adieresis" unicode="&#xc4;" horiz-adv-x="769" 
d="M311 749h-143v48h143v-48zM597 749h-143v48h143v-48zM307 713h155l281 -713h-154l-42 105h-322l-43 -105h-154zM280 250h211l-105 269z" />
    <glyph glyph-name="Aring" unicode="&#xc5;" horiz-adv-x="777" 
d="M282 845q0 21 8 40t22 33t33 22t40 8t40 -8t33 -22t22 -33t8 -40t-8 -40t-22 -33t-33 -22t-40 -8t-40 8t-33 22t-22 33t-8 40zM322 845q0 -26 18.5 -44.5t44.5 -18.5t44.5 18.5t18.5 44.5t-18.5 44.5t-44.5 18.5t-44.5 -18.5t-18.5 -44.5zM465 713l281 -713h-154l-42 105
h-322l-43 -105h-154l279 713h155zM494 250l-105 269l-106 -269h211z" />
    <glyph glyph-name="AE" unicode="&#xc6;" horiz-adv-x="1262" 
d="M323 711h869v-141h-570v-140h294v-144h-294v-143h570v-143h-713v106h-239l-43 -106h-153zM479 570h-58l-126 -321h184v321z" />
    <glyph glyph-name="Ccedilla" unicode="&#xc7;" 
d="M452 -1v-134h-71l21 134h-91q-51 0 -96.5 19.5t-80 53.5t-54.5 79.5t-20 97.5v214q0 52 19.5 97.5t53.5 79t80 53t98 19.5h215q48 0 93 -19t79.5 -52t55 -78t20.5 -97h-145q0 20 -8.5 39t-23 34t-33 24.5t-38.5 9.5h-215q-24 0 -43.5 -9.5t-33.5 -24.5t-21.5 -35
t-7.5 -41v-214q0 -21 7.5 -40t21 -33.5t33 -23t44.5 -8.5h215q21 0 40 8t33 22t22 32.5t8 39.5h145q0 -52 -21 -97t-56 -78.5t-79.5 -52.5t-91.5 -19h-74zM452 -1v-134h-71l21 134h-91q-51 0 -96.5 19.5t-80 53.5t-54.5 79.5t-20 97.5v214q0 52 19.5 97.5t53.5 79t80 53
t98 19.5h215q48 0 93 -19t79.5 -52t55 -78t20.5 -97h-145q0 20 -8.5 39t-23 34t-33 24.5t-38.5 9.5h-215q-24 0 -43.5 -9.5t-33.5 -24.5t-21.5 -35t-7.5 -41v-214q0 -21 7.5 -40t21 -33.5t33 -23t44.5 -8.5h215q21 0 40 8t33 22t22 32.5t8 39.5h145q0 -52 -21 -97t-56 -78.5
t-79.5 -52.5t-91.5 -19h-74z" />
    <glyph glyph-name="Egrave" unicode="&#xc8;" horiz-adv-x="788" 
d="M407 745l-109 81l49 50l96 -96zM760 568h-565v-141h293v-139h-293v-146h565v-142h-707v568v143h707v-143z" />
    <glyph glyph-name="Eacute" unicode="&#xc9;" horiz-adv-x="791" 
d="M756 567h-564v-140h291v-139h-291v-144h564v-144h-707v567v144h707v-144zM369 780l94 97l50 -50l-110 -84z" />
    <glyph glyph-name="Ecircumflex" unicode="&#xca;" horiz-adv-x="796" 
d="M760 568h-565v-141h293v-139h-293v-146h565v-142h-707v568v143h707v-143zM285 778l122 119l121 -119l-30 -30l-91 89l-90 -89z" />
    <glyph glyph-name="Edieresis" unicode="&#xcb;" horiz-adv-x="851" 
d="M204 749v48h143v-48h-143zM490 749v48h143v-48h-143zM781 571h-571v-141h297v-143h-297v-144h571v-143h-711v571v140h711v-140z" />
    <glyph glyph-name="Igrave" unicode="&#xcc;" horiz-adv-x="258" 
d="M65 0v711h142v-711h-142zM134 746l-109 81l50 47l94 -95z" />
    <glyph glyph-name="Iacute" unicode="&#xcd;" horiz-adv-x="260" 
d="M54 712h143v-712h-143v712zM88 780l98 96l48 -47l-108 -83z" />
    <glyph glyph-name="Icircumflex" unicode="&#xce;" horiz-adv-x="299" 
d="M79 0v711h141v-711h-141zM29 778l121 121l120 -121l-30 -30l-90 91l-91 -91z" />
    <glyph glyph-name="Idieresis" unicode="&#xcf;" horiz-adv-x="279" 
d="M277 711v-711h-143v711h143zM14 769v49h141v-49h-141zM256 766v49h141v-49h-141z" />
    <glyph glyph-name="Ntilde" unicode="&#xd1;" horiz-adv-x="854" 
d="M599 831q-15 -31 -39 -56t-61 -25q-24 0 -44 8.5t-36.5 19t-31 19t-26.5 8.5q-19 0 -30 -11t-19 -25l-67 36q9 15 19.5 29t23 25t28.5 17.5t35 6.5q21 0 40 -9t36 -19.5t32.5 -19t30.5 -8.5q16 0 26 12t16 25zM213 711l428 -246v246h143v-711h-143v302l-428 246v-548
h-143v711h95h48z" />
    <glyph glyph-name="Ograve" unicode="&#xd2;" horiz-adv-x="829" 
d="M291 826l50 50l95 -96l-34 -35zM308 0q-51 0 -96.5 19.5t-79 53t-53 79t-19.5 96.5v214q0 51 19.5 96.5t53 79t79 53t96.5 19.5h214q51 0 96.5 -19.5t79 -53t53 -79t19.5 -96.5v-214q0 -51 -19.5 -96.5t-53 -79t-79 -53t-96.5 -19.5h-214zM233 537q-15 -15 -24 -33.5
t-9 -41.5v-214q0 -22 8.5 -41t23.5 -33.5t34.5 -22.5t41.5 -8h214q45 0 75 30t30 75v214q0 22 -8 41.5t-22.5 34.5t-33.5 23.5t-41 8.5h-214q-23 0 -41.5 -9t-33.5 -24z" />
    <glyph glyph-name="Oacute" unicode="&#xd3;" horiz-adv-x="829" 
d="M339 783l94 94l48 -50l-110 -79zM308 0q-51 0 -96.5 19.5t-79 53t-53 79t-19.5 96.5v214q0 51 19.5 96.5t53 79t79 53t96.5 19.5h214q51 0 96.5 -19.5t79 -53t53 -79t19.5 -96.5v-214q0 -51 -19.5 -96.5t-53 -79t-79 -53t-96.5 -19.5h-214zM233 537q-15 -15 -24 -33.5
t-9 -41.5v-214q0 -22 8.5 -41t23.5 -33.5t34.5 -22.5t41.5 -8h214q45 0 75 30t30 75v214q0 22 -8 41.5t-22.5 34.5t-33.5 23.5t-41 8.5h-214q-23 0 -41.5 -9t-33.5 -24z" />
    <glyph glyph-name="Ocircumflex" unicode="&#xd4;" horiz-adv-x="829" 
d="M308 0q-51 0 -96.5 19.5t-79 53t-53 79t-19.5 96.5v214q0 51 19.5 96.5t53 79t79 53t96.5 19.5h214q51 0 96.5 -19.5t79 -53t53 -79t19.5 -96.5v-214q0 -51 -19.5 -96.5t-53 -79t-79 -53t-96.5 -19.5h-214zM233 537q-15 -15 -24 -33.5t-9 -41.5v-214q0 -22 8.5 -41
t23.5 -33.5t34.5 -22.5t41.5 -8h214q45 0 75 30t30 75v214q0 22 -8 41.5t-22.5 34.5t-33.5 23.5t-41 8.5h-214q-23 0 -41.5 -9t-33.5 -24zM407 897l121 -119l-30 -30l-91 89l-90 -89l-32 30z" />
    <glyph glyph-name="Otilde" unicode="&#xd5;" horiz-adv-x="829" 
d="M586 831q-15 -31 -39 -56t-61 -25q-24 0 -44 8.5t-36.5 19t-31 19t-26.5 8.5q-19 0 -30 -11t-19 -25l-67 36q9 15 19.5 29t23 25t28.5 17.5t35 6.5q21 0 40 -9t36 -19.5t32.5 -19t30.5 -8.5q16 0 26 12t16 25zM308 0q-51 0 -96.5 19.5t-79 53t-53 79t-19.5 96.5v214
q0 51 19.5 96.5t53 79t79 53t96.5 19.5h214q51 0 96.5 -19.5t79 -53t53 -79t19.5 -96.5v-214q0 -51 -19.5 -96.5t-53 -79t-79 -53t-96.5 -19.5h-214zM233 537q-15 -15 -24 -33.5t-9 -41.5v-214q0 -22 8.5 -41t23.5 -33.5t34.5 -22.5t41.5 -8h214q45 0 75 30t30 75v214
q0 22 -8 41.5t-22.5 34.5t-33.5 23.5t-41 8.5h-214q-23 0 -41.5 -9t-33.5 -24z" />
    <glyph glyph-name="Odieresis" unicode="&#xd6;" horiz-adv-x="829" 
d="M204 749v48h143v-48h-143zM490 749v48h143v-48h-143zM308 0q-51 0 -96.5 19.5t-79 53t-53 79t-19.5 96.5v214q0 51 19.5 96.5t53 79t79 53t96.5 19.5h214q51 0 96.5 -19.5t79 -53t53 -79t19.5 -96.5v-214q0 -51 -19.5 -96.5t-53 -79t-79 -53t-96.5 -19.5h-214zM233 537
q-15 -15 -24 -33.5t-9 -41.5v-214q0 -22 8.5 -41t23.5 -33.5t34.5 -22.5t41.5 -8h214q45 0 75 30t30 75v214q0 22 -8 41.5t-22.5 34.5t-33.5 23.5t-41 8.5h-214q-23 0 -41.5 -9t-33.5 -24z" />
    <glyph glyph-name="Ugrave" unicode="&#xd9;" horiz-adv-x="800" 
d="M509 0h-213q-48 0 -93 19t-79 52.5t-54.5 79.5t-20.5 100v460h142v-460q0 -24 8.5 -44t23 -34.5t33.5 -22.5t40 -8h213q20 0 39.5 8t34.5 22.5t24.5 34.5t9.5 44v460h139v-460q0 -54 -20.5 -100t-54.5 -79.5t-79 -52.5t-93 -19zM291 826l50 50l95 -96l-34 -35z" />
    <glyph glyph-name="Uacute" unicode="&#xda;" horiz-adv-x="800" 
d="M505 0h-213q-48 0 -93 19t-79 52.5t-54.5 79.5t-20.5 100v460h142v-460q0 -24 8.5 -44t23 -34.5t33.5 -22.5t40 -8h213q20 0 39.5 8t34.5 22.5t24.5 34.5t9.5 44v460h139v-460q0 -54 -20.5 -100t-54.5 -79.5t-79 -52.5t-93 -19zM396 748l-32 35l94 94l48 -50z" />
    <glyph glyph-name="Ucircumflex" unicode="&#xdb;" horiz-adv-x="803" 
d="M508 0h-213q-48 0 -93 19t-79 52.5t-54.5 79.5t-20.5 100v460h142v-460q0 -24 8.5 -44t23 -34.5t33.5 -22.5t40 -8h213q20 0 39.5 8t34.5 22.5t24.5 34.5t9.5 44v460h139v-460q0 -54 -20.5 -100t-54.5 -79.5t-79 -52.5t-93 -19zM405 903l121 -121l-31 -30l-90 91l-91 -91
l-30 30z" />
    <glyph glyph-name="Udieresis" unicode="&#xdc;" horiz-adv-x="841" 
d="M204 749v48h143v-48h-143zM490 749v48h143v-48h-143zM315 0q-52 0 -97.5 19.5t-79.5 53.5t-53.5 79.5t-19.5 97.5v462h140v-462q0 -23 8.5 -42.5t23.5 -34t35 -22.5t43 -8h212q23 0 43 8t35 22.5t23.5 34t8.5 42.5v462h140v-462q0 -52 -19.5 -97.5t-53.5 -79.5
t-79.5 -53.5t-97.5 -19.5h-212z" />
    <glyph glyph-name="agrave" unicode="&#xe0;" horiz-adv-x="752" 
d="M454 711l277 -711h-152l-43 107h-320l-40 -107h-152l277 711h153zM482 249l-107 266l-104 -266h211zM266 824l50 50l96 -94l-37 -35z" />
    <glyph glyph-name="aacute" unicode="&#xe1;" horiz-adv-x="750" 
d="M448 711l279 -711h-153l-43 108h-318l-40 -108h-153l279 711h149zM478 249l-107 265l-104 -265h211zM371 748l-32 35l94 94l48 -50z" />
    <glyph glyph-name="acircumflex" unicode="&#xe2;" horiz-adv-x="764" 
d="M458 712l280 -712h-151l-43 105h-322l-43 -105h-153l279 712h153zM488 249l-105 269l-105 -269h210zM383 903l121 -121l-31 -30l-90 91l-91 -91l-30 30z" />
    <glyph glyph-name="atilde" unicode="&#xe3;" horiz-adv-x="776" 
d="M561 831q-15 -31 -39 -56t-61 -25q-24 0 -44 8.5t-36.5 19t-31 19t-26.5 8.5q-19 0 -30 -11t-19 -25l-67 36q9 15 19.5 29t23 25t28.5 17.5t35 6.5q21 0 40 -9t36 -19.5t32.5 -19t30.5 -8.5q16 0 26 12t16 25zM465 713l281 -713h-154l-42 105h-322l-43 -105h-154l279 713
h155zM494 250l-105 269l-106 -269h211z" />
    <glyph glyph-name="adieresis" unicode="&#xe4;" horiz-adv-x="762" 
d="M426 771v50h142v-50h-142zM186 773v50h140v-50h-140zM457 712l280 -712h-151l-43 105h-322l-43 -105h-153l279 712h153zM487 249l-105 269l-105 -269h210z" />
    <glyph glyph-name="aring" unicode="&#xe5;" horiz-adv-x="776" 
d="M282 845q0 21 8 40t22 33t33 22t40 8t40 -8t33 -22t22 -33t8 -40t-8 -40t-22 -33t-33 -22t-40 -8t-40 8t-33 22t-22 33t-8 40zM322 845q0 -26 18.5 -44.5t44.5 -18.5t44.5 18.5t18.5 44.5t-18.5 44.5t-44.5 18.5t-44.5 -18.5t-18.5 -44.5zM465 713l281 -713h-154l-42 105
h-322l-43 -105h-154l279 713h155zM494 250l-105 269l-106 -269h211z" />
    <glyph glyph-name="ae" unicode="&#xe6;" horiz-adv-x="1262" 
d="M1192 711v-141h-570v-140h294v-144h-294v-143h570v-143h-713v106h-239l-43 -106h-153l279 711h869zM421 570l-126 -321h184v321h-58z" />
    <glyph glyph-name="ccedilla" unicode="&#xe7;" 
d="M452 -135h-71l21 134h-91q-51 0 -96.5 19.5t-80 53.5t-54.5 79.5t-20 97.5v214q0 52 19.5 97.5t53.5 79t80 53t98 19.5h215q48 0 93 -19t79.5 -52t55 -78t20.5 -97h-145q0 20 -8.5 39t-23 34t-33 24.5t-38.5 9.5h-215q-24 0 -43.5 -9.5t-33.5 -24.5t-21.5 -35t-7.5 -41
v-214q0 -21 7.5 -40t21 -33.5t33 -23t44.5 -8.5h215q21 0 40 8t33 22t22 32.5t8 39.5h145q0 -52 -21 -97t-56 -78.5t-79.5 -52.5t-91.5 -19h-74v-134z" />
    <glyph glyph-name="egrave" unicode="&#xe8;" horiz-adv-x="788" 
d="M298 826l49 50l96 -96l-36 -35zM195 568v-141h293v-139h-293v-146h565v-142h-707v568v143h707v-143h-565z" />
    <glyph glyph-name="eacute" unicode="&#xe9;" horiz-adv-x="791" 
d="M192 567v-140h291v-139h-291v-144h564v-144h-707v567v144h707v-144h-564zM403 743l-34 37l94 97l50 -50z" />
    <glyph glyph-name="ecircumflex" unicode="&#xea;" horiz-adv-x="796" 
d="M195 568v-141h293v-139h-293v-146h565v-142h-707v568v143h707v-143h-565zM407 897l121 -119l-30 -30l-91 89l-90 -89l-32 30z" />
    <glyph glyph-name="edieresis" unicode="&#xeb;" horiz-adv-x="819" 
d="M773 569h-566v-141h293v-140h-293v-145h566v-143h-709v569v143h709v-143zM204 749v48h143v-48h-143zM490 749v48h143v-48h-143z" />
    <glyph glyph-name="igrave" unicode="&#xec;" horiz-adv-x="258" 
d="M65 0v711h142v-711h-142zM25 827l50 47l94 -95l-35 -33z" />
    <glyph glyph-name="iacute" unicode="&#xed;" horiz-adv-x="260" 
d="M54 0v712h143v-712h-143zM126 746l-38 34l98 96l48 -47z" />
    <glyph glyph-name="icircumflex" unicode="&#xee;" horiz-adv-x="299" 
d="M79 0v711h141v-711h-141zM150 899l120 -121l-30 -30l-90 91l-91 -91l-30 30z" />
    <glyph glyph-name="idieresis" unicode="&#xef;" horiz-adv-x="411" 
d="M277 711v-711h-143v711h143zM14 769v49h141v-49h-141zM256 766v49h141v-49h-141z" />
    <glyph glyph-name="ntilde" unicode="&#xf1;" horiz-adv-x="859" 
d="M604 831q-15 -31 -39 -56t-61 -25q-24 0 -44 8.5t-36.5 19t-31 19t-26.5 8.5q-19 0 -30 -11t-19 -25l-67 36q9 15 19.5 29t23 25t28.5 17.5t35 6.5q21 0 40 -9t36 -19.5t32.5 -19t30.5 -8.5q16 0 26 12t16 25zM218 711l428 -246v246h143v-711h-143v302l-428 246v-548
h-143v711h95h48z" />
    <glyph glyph-name="ograve" unicode="&#xf2;" 
d="M291 826l50 50l95 -96l-34 -35zM308 0q-51 0 -96.5 19.5t-79 53t-53 79t-19.5 96.5v214q0 51 19.5 96.5t53 79t79 53t96.5 19.5h214q51 0 96.5 -19.5t79 -53t53 -79t19.5 -96.5v-214q0 -51 -19.5 -96.5t-53 -79t-79 -53t-96.5 -19.5h-214zM233 537q-15 -15 -24 -33.5
t-9 -41.5v-214q0 -22 8.5 -41t23.5 -33.5t34.5 -22.5t41.5 -8h214q45 0 75 30t30 75v214q0 22 -8 41.5t-22.5 34.5t-33.5 23.5t-41 8.5h-214q-23 0 -41.5 -9t-33.5 -24z" />
    <glyph glyph-name="oacute" unicode="&#xf3;" 
d="M339 783l94 94l48 -50l-110 -79zM308 0q-51 0 -96.5 19.5t-79 53t-53 79t-19.5 96.5v214q0 51 19.5 96.5t53 79t79 53t96.5 19.5h214q51 0 96.5 -19.5t79 -53t53 -79t19.5 -96.5v-214q0 -51 -19.5 -96.5t-53 -79t-79 -53t-96.5 -19.5h-214zM233 537q-15 -15 -24 -33.5
t-9 -41.5v-214q0 -22 8.5 -41t23.5 -33.5t34.5 -22.5t41.5 -8h214q45 0 75 30t30 75v214q0 22 -8 41.5t-22.5 34.5t-33.5 23.5t-41 8.5h-214q-23 0 -41.5 -9t-33.5 -24z" />
    <glyph glyph-name="ocircumflex" unicode="&#xf4;" 
d="M308 0q-51 0 -96.5 19.5t-79 53t-53 79t-19.5 96.5v214q0 51 19.5 96.5t53 79t79 53t96.5 19.5h214q51 0 96.5 -19.5t79 -53t53 -79t19.5 -96.5v-214q0 -51 -19.5 -96.5t-53 -79t-79 -53t-96.5 -19.5h-214zM233 537q-15 -15 -24 -33.5t-9 -41.5v-214q0 -22 8.5 -41
t23.5 -33.5t34.5 -22.5t41.5 -8h214q45 0 75 30t30 75v214q0 22 -8 41.5t-22.5 34.5t-33.5 23.5t-41 8.5h-214q-23 0 -41.5 -9t-33.5 -24zM407 897l121 -119l-30 -30l-91 89l-90 -89l-32 30z" />
    <glyph glyph-name="otilde" unicode="&#xf5;" 
d="M587 831q-15 -31 -39 -56t-61 -25q-24 0 -44 8.5t-36.5 19t-31 19t-26.5 8.5q-19 0 -30 -11t-19 -25l-67 36q9 15 19.5 29t23 25t28.5 17.5t35 6.5q21 0 40 -9t36 -19.5t32.5 -19t30.5 -8.5q16 0 26 12t16 25zM308 0q-51 0 -96.5 19.5t-79 53t-53 79t-19.5 96.5v214
q0 51 19.5 96.5t53 79t79 53t96.5 19.5h214q51 0 96.5 -19.5t79 -53t53 -79t19.5 -96.5v-214q0 -51 -19.5 -96.5t-53 -79t-79 -53t-96.5 -19.5h-214zM233 537q-15 -15 -24 -33.5t-9 -41.5v-214q0 -22 8.5 -41t23.5 -33.5t34.5 -22.5t41.5 -8h214q45 0 75 30t30 75v214
q0 22 -8 41.5t-22.5 34.5t-33.5 23.5t-41 8.5h-214q-23 0 -41.5 -9t-33.5 -24z" />
    <glyph glyph-name="odieresis" unicode="&#xf6;" 
d="M204 749v48h143v-48h-143zM490 749v48h143v-48h-143zM308 0q-51 0 -96.5 19.5t-79 53t-53 79t-19.5 96.5v214q0 51 19.5 96.5t53 79t79 53t96.5 19.5h214q51 0 96.5 -19.5t79 -53t53 -79t19.5 -96.5v-214q0 -51 -19.5 -96.5t-53 -79t-79 -53t-96.5 -19.5h-214zM233 537
q-15 -15 -24 -33.5t-9 -41.5v-214q0 -22 8.5 -41t23.5 -33.5t34.5 -22.5t41.5 -8h214q45 0 75 30t30 75v214q0 22 -8 41.5t-22.5 34.5t-33.5 23.5t-41 8.5h-214q-23 0 -41.5 -9t-33.5 -24z" />
    <glyph glyph-name="ugrave" unicode="&#xf9;" horiz-adv-x="800" 
d="M509 0h-213q-48 0 -93 19t-79 52.5t-54.5 79.5t-20.5 100v460h142v-460q0 -24 8.5 -44t23 -34.5t33.5 -22.5t40 -8h213q20 0 39.5 8t34.5 22.5t24.5 34.5t9.5 44v460h139v-460q0 -54 -20.5 -100t-54.5 -79.5t-79 -52.5t-93 -19zM291 826l50 50l95 -96l-34 -35z" />
    <glyph glyph-name="uacute" unicode="&#xfa;" horiz-adv-x="841" 
d="M505 0h-213q-48 0 -93 19t-79 52.5t-54.5 79.5t-20.5 100v460h142v-460q0 -24 8.5 -44t23 -34.5t33.5 -22.5t40 -8h213q20 0 39.5 8t34.5 22.5t24.5 34.5t9.5 44v460h139v-460q0 -54 -20.5 -100t-54.5 -79.5t-79 -52.5t-93 -19zM396 748l-32 35l94 94l48 -50z" />
    <glyph glyph-name="ucircumflex" unicode="&#xfb;" horiz-adv-x="841" 
d="M421 903l121 -121l-31 -30l-90 91l-91 -91l-30 30zM315 0q-52 0 -97.5 19.5t-79.5 53.5t-53.5 79.5t-19.5 97.5v462h140v-462q0 -23 8.5 -42.5t23.5 -34t35 -22.5t43 -8h212q23 0 43 8t35 22.5t23.5 34t8.5 42.5v462h140v-462q0 -52 -19.5 -97.5t-53.5 -79.5t-79.5 -53.5
t-97.5 -19.5h-212z" />
    <glyph glyph-name="udieresis" unicode="&#xfc;" horiz-adv-x="825" 
d="M305 0q-50 0 -95 19.5t-78.5 53.5t-53.5 79.5t-20 98.5v460h142v-460q0 -24 9 -44t23.5 -34.5t33.5 -22.5t39 -8h215q19 0 38.5 8t34.5 22.5t24.5 34.5t9.5 44v460h140v-460q0 -53 -20 -98.5t-53.5 -79.5t-78.5 -53.5t-95 -19.5h-215zM221 746v50h141v-50h-141zM463 746
v50h141v-50h-141z" />
    <glyph glyph-name="ydieresis" unicode="&#xff;" horiz-adv-x="756" 
d="M553 712h180l-284 -375v-337h-142v337l-282 375h179l177 -232zM307 751h-143v48h143v-48zM593 751h-143v48h143v-48z" />
    <glyph glyph-name="dotlessi" unicode="&#x131;" horiz-adv-x="279" 
d="M70 712h141v-712h-141v712z" />
    <glyph glyph-name="ij" unicode="&#x133;" horiz-adv-x="847" 
d="M213 713v-713h-143v713h143zM532 3q-53 0 -98.5 20t-79 54t-52.5 79t-19 95h143q0 -22 8.5 -41.5t23 -34t33.5 -23t41 -8.5q24 0 43.5 9t34 23.5t22 34t7.5 40.5v462h144v-462q0 -49 -19 -93.5t-52.5 -79t-79.5 -55t-100 -20.5z" />
    <glyph glyph-name="OE" unicode="&#x152;" horiz-adv-x="1400" 
d="M243 536q-15 -15 -24 -33.5t-9 -41.5v-214q0 -22 8.5 -41t23.5 -33.5t34.5 -22.5t41.5 -8h214q45 0 75 30t30 75v214q0 22 -8 41.5t-22.5 34.5t-33.5 23.5t-41 8.5h-214q-23 0 -41.5 -9t-33.5 -24zM651 64q-34 -31 -77.5 -48t-91.5 -17h-164q-51 0 -96.5 19.5t-79 53
t-53 79t-19.5 96.5v214q0 51 19.5 96.5t53 79t79 53t96.5 19.5h164q48 0 91.5 -17.5t77.5 -48.5v66h711v-140h-571v-141h297v-143h-297v-144h571v-143h-711v66z" />
    <glyph glyph-name="oe" unicode="&#x153;" horiz-adv-x="1430" 
d="M243 536q-15 -15 -24 -33.5t-9 -41.5v-214q0 -22 8.5 -41t23.5 -33.5t34.5 -22.5t41.5 -8h214q45 0 75 30t30 75v214q0 22 -8 41.5t-22.5 34.5t-33.5 23.5t-41 8.5h-214q-23 0 -41.5 -9t-33.5 -24zM651 64q-34 -31 -77.5 -48t-91.5 -17h-164q-51 0 -96.5 19.5t-79 53
t-53 79t-19.5 96.5v214q0 51 19.5 96.5t53 79t79 53t96.5 19.5h164q48 0 91.5 -17.5t77.5 -48.5v66h711v-140h-571v-141h297v-143h-297v-144h571v-143h-711v66z" />
    <glyph glyph-name="Ydieresis" unicode="&#x178;" horiz-adv-x="756" 
d="M733 712l-284 -375v-337h-142v337l-282 375h179l177 -232l172 232h180zM164 751v48h143v-48h-143zM450 751v48h143v-48h-143z" />
    <glyph glyph-name="circumflex" unicode="&#x2c6;" horiz-adv-x="833" 
d="M405 903l121 -121l-31 -30l-90 91l-91 -91l-30 30zM405 903l121 -121l-31 -30l-90 91l-91 -91l-30 30z" />
    <glyph glyph-name="dotaccent" unicode="&#x2d9;" horiz-adv-x="833" 
 />
    <glyph glyph-name="ogonek" unicode="&#x2db;" horiz-adv-x="833" 
 />
    <glyph glyph-name="endash" unicode="&#x2013;" horiz-adv-x="833" 
d="M70 256v119h475v-119h-475z" />
    <glyph glyph-name="emdash" unicode="&#x2014;" horiz-adv-x="833" 
d="M70 256v119h711v-119h-711z" />
    <glyph glyph-name="quoteleft" unicode="&#x2018;" horiz-adv-x="261" 
d="M190 712v-178h-119v118z" />
    <glyph glyph-name="quoteright" unicode="&#x2019;" horiz-adv-x="261" 
d="M71 534v178h119v-118z" />
    <glyph glyph-name="quotesinglbase" unicode="&#x201a;" horiz-adv-x="833" 
 />
    <glyph glyph-name="quotedblleft" unicode="&#x201c;" horiz-adv-x="440" 
d="M368 712v-178h-119v118zM190 712v-178h-119v118z" />
    <glyph glyph-name="quotedblright" unicode="&#x201d;" horiz-adv-x="440" 
d="M71 534v178h119v-118zM249 534v178h119v-118z" />
    <glyph glyph-name="bullet" unicode="&#x2022;" horiz-adv-x="490" 
d="M72 356q0 37 14 69.5t38 56.5t56.5 38t69.5 14t69.5 -14t56.5 -38t38 -56.5t14 -69.5t-14 -69.5t-38 -56.5t-56.5 -38t-69.5 -14t-69.5 14t-56.5 38t-38 56.5t-14 69.5z" />
    <glyph glyph-name="ellipsis" unicode="&#x2026;" horiz-adv-x="771" 
d="M70 0v119h119v-119h-119zM327 0v119h119v-119h-119zM584 0v119h119v-119h-119z" />
    <glyph glyph-name="Euro" unicode="&#x20ac;" horiz-adv-x="580" 
d="M510 2q-54 0 -103.5 15.5t-91.5 42.5t-75 65t-52 83h-118v100h88q-3 24 -3 50q0 24 3 50h-88v100h118q20 45 52.5 82.5t74.5 64.5t91.5 42.5t103.5 15.5v-106q-62 0 -113 -27t-86 -72h199v-100h-244q-2 -13 -3.5 -25t-1.5 -25q0 -14 1.5 -26t3.5 -24h244v-100h-199
q14 -23 36 -41t48 -31.5t55.5 -20.5t59.5 -7v-106z" />
    <glyph glyph-name="trademark" unicode="&#x2122;" horiz-adv-x="529" 
d="M252 674h-73v-145h-35v145h-73v36h181v-36zM458 710v-181h-36v129l-30 -28h1l-26 -26l-55 54v-129h-35v181h37l53 -55l55 55h36z" />
    <glyph glyph-name="NULL" horiz-adv-x="0" 
 />
  </font>
</defs>
</svg>
